# xmcd CD database file
#
# Track frame offsets:
#	182
#	15355
#	36845
#	62005
#	78177
#	94752
#	109425
#	132947
#	157782
#	172687
#
# Disc length: 2445 seconds
#
# Revision: 4
# Processed by: cddbd v1.5.2PL0 Copyright (c) Steve Scherf et al.
# Submitted via: CDex 1.51
#
DISCID=6a098b0a
DTITLE=Baden Powell - Tristeza On Guitar  { rec. Rio de Janeiro, 1 Juin 1966 }
DYEAR=1966
DGENRE=Musique brésilienne
TTITLE0=Tristeza
TTITLE1=Canto De Xango
TTITLE2=Round About Midnight
TTITLE3=Sarava
TTITLE4=Canto De Ossanha
TTITLE5=Manha De Carnaval
TTITLE6=Invencao Em 71-2
TTITLE7=Das Rosas
TTITLE8=Som Do Carnaval
TTITLE9=O Astronauta
EXTD=YEAR: 1966
EXTT0=
EXTT1=
EXTT2=
EXTT3=
EXTT4=
EXTT5=
EXTT6=
EXTT7=
EXTT8=
EXTT9=
PLAYORDER=
